<?xml version="1.0" encoding="utf-8" standalone="no"?>
<!DOCTYPE svg PUBLIC "-//W3C//DTD SVG 1.1//EN"
  "http://www.w3.org/Graphics/SVG/1.1/DTD/svg11.dtd">
<svg xmlns:xlink="http://www.w3.org/1999/xlink" width="720pt" height="432pt" viewBox="0 0 720 432" xmlns="http://www.w3.org/2000/svg" version="1.1">
 <metadata>
  <rdf:RDF xmlns:dc="http://purl.org/dc/elements/1.1/" xmlns:cc="http://creativecommons.org/ns#" xmlns:rdf="http://www.w3.org/1999/02/22-rdf-syntax-ns#">
   <cc:Work>
    <dc:type rdf:resource="http://purl.org/dc/dcmitype/StillImage"/>
    <dc:date>2023-09-22T14:17:48.819857</dc:date>
    <dc:format>image/svg+xml</dc:format>
    <dc:creator>
     <cc:Agent>
      <dc:title>Matplotlib v3.5.2, https://matplotlib.org/</dc:title>
     </cc:Agent>
    </dc:creator>
   </cc:Work>
  </rdf:RDF>
 </metadata>
 <defs>
  <style type="text/css">*{stroke-linejoin: round; stroke-linecap: butt}</style>
 </defs>
 <g id="figure_1">
  <g id="patch_1">
   <path d="M 0 432 
L 720 432 
L 720 0 
L 0 0 
z
" style="fill: #ffffff"/>
  </g>
  <g id="axes_1">
   <g id="patch_2">
    <path d="M 90 384.48 
L 648 384.48 
L 648 51.84 
L 90 51.84 
z
" style="fill: #ffffff"/>
   </g>
   <g id="PathCollection_1">
    <path d="M 115.363636 371.596068 
C 115.956649 371.596068 116.525452 371.360462 116.944775 370.941139 
C 117.364098 370.521816 117.599704 369.953012 117.599704 369.36 
C 117.599704 368.766988 117.364098 368.198184 116.944775 367.778861 
C 116.525452 367.359538 115.956649 367.123932 115.363636 367.123932 
C 114.770624 367.123932 114.20182 367.359538 113.782498 367.778861 
C 113.363175 368.198184 113.127568 368.766988 113.127568 369.36 
C 113.127568 369.953012 113.363175 370.521816 113.782498 370.941139 
C 114.20182 371.360462 114.770624 371.596068 115.363636 371.596068 
z
" clip-path="url(#p726333c8b3)" style="fill: #1f77b4; fill-opacity: 0.5; stroke: #1f77b4; stroke-opacity: 0.5"/>
    <path d="M 154.384615 373.232983 
C 155.411743 373.232983 156.39694 372.824901 157.123228 372.098613 
C 157.849517 371.372324 158.257599 370.387127 158.257599 369.36 
C 158.257599 368.332873 157.849517 367.347676 157.123228 366.621387 
C 156.39694 365.895099 155.411743 365.487017 154.384615 365.487017 
C 153.357488 365.487017 152.372291 365.895099 151.646003 366.621387 
C 150.919714 367.347676 150.511632 368.332873 150.511632 369.36 
C 150.511632 370.387127 150.919714 371.372324 151.646003 372.098613 
C 152.372291 372.824901 153.357488 373.232983 154.384615 373.232983 
z
" clip-path="url(#p726333c8b3)" style="fill: #1f77b4; fill-opacity: 0.5; stroke: #1f77b4; stroke-opacity: 0.5"/>
    <path d="M 154.384615 241.996068 
C 154.977628 241.996068 155.546431 241.760462 155.965754 241.341139 
C 156.385077 240.921816 156.620683 240.353012 156.620683 239.76 
C 156.620683 239.166988 156.385077 238.598184 155.965754 238.178861 
C 155.546431 237.759538 154.977628 237.523932 154.384615 237.523932 
C 153.791603 237.523932 153.222799 237.759538 152.803477 238.178861 
C 152.384154 238.598184 152.148547 239.166988 152.148547 239.76 
C 152.148547 240.353012 152.384154 240.921816 152.803477 241.341139 
C 153.222799 241.760462 153.791603 241.996068 154.384615 241.996068 
z
" clip-path="url(#p726333c8b3)" style="fill: #1f77b4; fill-opacity: 0.5; stroke: #1f77b4; stroke-opacity: 0.5"/>
    <path d="M 193.405594 376.776198 
C 195.372393 376.776198 197.258902 375.994781 198.649639 374.604044 
C 200.040375 373.213307 200.821793 371.326799 200.821793 369.36 
C 200.821793 367.393201 200.040375 365.506693 198.649639 364.115956 
C 197.258902 362.725219 195.372393 361.943802 193.405594 361.943802 
C 191.438796 361.943802 189.552287 362.725219 188.16155 364.115956 
C 186.770813 365.506693 185.989396 367.393201 185.989396 369.36 
C 185.989396 371.326799 186.770813 373.213307 188.16155 374.604044 
C 189.552287 375.994781 191.438796 376.776198 193.405594 376.776198 
z
" clip-path="url(#p726333c8b3)" style="fill: #1f77b4; fill-opacity: 0.5; stroke: #1f77b4; stroke-opacity: 0.5"/>
    <path d="M 193.405594 285.196068 
C 193.998607 285.196068 194.56741 284.960462 194.986733 284.541139 
C 195.406056 284.121816 195.641662 283.553012 195.641662 282.96 
C 195.641662 282.366988 195.406056 281.798184 194.986733 281.378861 
C 194.56741 280.959538 193.998607 280.723932 193.405594 280.723932 
C 192.812582 280.723932 192.243778 280.959538 191.824456 281.378861 
C 191.405133 281.798184 191.169526 282.366988 191.169526 282.96 
C 191.169526 283.553012 191.405133 284.121816 191.824456 284.541139 
C 192.243778 284.960462 192.812582 285.196068 193.405594 285.196068 
z
" clip-path="url(#p726333c8b3)" style="fill: #1f77b4; fill-opacity: 0.5; stroke: #1f77b4; stroke-opacity: 0.5"/>
    <path d="M 193.405594 241.996068 
C 193.998607 241.996068 194.56741 241.760462 194.986733 241.341139 
C 195.406056 240.921816 195.641662 240.353012 195.641662 239.76 
C 195.641662 239.166988 195.406056 238.598184 194.986733 238.178861 
C 194.56741 237.759538 193.998607 237.523932 193.405594 237.523932 
C 192.812582 237.523932 192.243778 237.759538 191.824456 238.178861 
C 191.405133 238.598184 191.169526 239.166988 191.169526 239.76 
C 191.169526 240.353012 191.405133 240.921816 191.824456 241.341139 
C 192.243778 241.760462 192.812582 241.996068 193.405594 241.996068 
z
" clip-path="url(#p726333c8b3)" style="fill: #1f77b4; fill-opacity: 0.5; stroke: #1f77b4; stroke-opacity: 0.5"/>
    <path d="M 193.405594 198.796068 
C 193.998607 198.796068 194.56741 198.560462 194.986733 198.141139 
C 195.406056 197.721816 195.641662 197.153012 195.641662 196.56 
C 195.641662 195.966988 195.406056 195.398184 194.986733 194.978861 
C 194.56741 194.559538 193.998607 194.323932 193.405594 194.323932 
C 192.812582 194.323932 192.243778 194.559538 191.824456 194.978861 
C 191.405133 195.398184 191.169526 195.966988 191.169526 196.56 
C 191.169526 197.153012 191.405133 197.721816 191.824456 198.141139 
C 192.243778 198.560462 192.812582 198.796068 193.405594 198.796068 
z
" clip-path="url(#p726333c8b3)" style="fill: #1f77b4; fill-opacity: 0.5; stroke: #1f77b4; stroke-opacity: 0.5"/>
    <path d="M 232.426573 382.205233 
C 235.833169 382.205233 239.100698 380.851778 241.509524 378.442951 
C 243.918351 376.034124 245.271806 372.766596 245.271806 369.36 
C 245.271806 365.953404 243.918351 362.685876 241.509524 360.277049 
C 239.100698 357.868222 235.833169 356.514767 232.426573 356.514767 
C 229.019978 356.514767 225.752449 357.868222 223.343622 360.277049 
C 220.934796 362.685876 219.581341 365.953404 219.581341 369.36 
C 219.581341 372.766596 220.934796 376.034124 223.343622 378.442951 
C 225.752449 380.851778 229.019978 382.205233 232.426573 382.205233 
z
" clip-path="url(#p726333c8b3)" style="fill: #1f77b4; fill-opacity: 0.5; stroke: #1f77b4; stroke-opacity: 0.5"/>
    <path d="M 232.426573 329.322278 
C 233.265219 329.322278 234.069629 328.98908 234.662641 328.396068 
C 235.255654 327.803056 235.588851 326.998646 235.588851 326.16 
C 235.588851 325.321354 235.255654 324.516944 234.662641 323.923932 
C 234.069629 323.33092 233.265219 322.997722 232.426573 322.997722 
C 231.587928 322.997722 230.783518 323.33092 230.190505 323.923932 
C 229.597493 324.516944 229.264296 325.321354 229.264296 326.16 
C 229.264296 326.998646 229.597493 327.803056 230.190505 328.396068 
C 230.783518 328.98908 231.587928 329.322278 232.426573 329.322278 
z
" clip-path="url(#p726333c8b3)" style="fill: #1f77b4; fill-opacity: 0.5; stroke: #1f77b4; stroke-opacity: 0.5"/>
    <path d="M 232.426573 198.796068 
C 233.019586 198.796068 233.588389 198.560462 234.007712 198.141139 
C 234.427035 197.721816 234.662641 197.153012 234.662641 196.56 
C 234.662641 195.966988 234.427035 195.398184 234.007712 194.978861 
C 233.588389 194.559538 233.019586 194.323932 232.426573 194.323932 
C 231.833561 194.323932 231.264758 194.559538 230.845435 194.978861 
C 230.426112 195.398184 230.190505 195.966988 230.190505 196.56 
C 230.190505 197.153012 230.426112 197.721816 230.845435 198.141139 
C 231.264758 198.560462 231.833561 198.796068 232.426573 198.796068 
z
" clip-path="url(#p726333c8b3)" style="fill: #1f77b4; fill-opacity: 0.5; stroke: #1f77b4; stroke-opacity: 0.5"/>
    <path d="M 271.447552 401.609031 
C 280.000095 401.609031 288.2035 398.21107 294.251061 392.163509 
C 300.298622 386.115947 303.696583 377.912543 303.696583 369.36 
C 303.696583 360.807457 300.298622 352.604053 294.251061 346.556491 
C 288.2035 340.50893 280.000095 337.110969 271.447552 337.110969 
C 262.895009 337.110969 254.691605 340.50893 248.644044 346.556491 
C 242.596483 352.604053 239.198521 360.807457 239.198521 369.36 
C 239.198521 377.912543 242.596483 386.115947 248.644044 392.163509 
C 254.691605 398.21107 262.895009 401.609031 271.447552 401.609031 
z
" clip-path="url(#p726333c8b3)" style="fill: #1f77b4; fill-opacity: 0.5; stroke: #1f77b4; stroke-opacity: 0.5"/>
    <path d="M 271.447552 334.820254 
C 273.744279 334.820254 275.947246 333.907755 277.571277 332.283724 
C 279.195307 330.659694 280.107806 328.456726 280.107806 326.16 
C 280.107806 323.863274 279.195307 321.660306 277.571277 320.036276 
C 275.947246 318.412245 273.744279 317.499746 271.447552 317.499746 
C 269.150826 317.499746 266.947859 318.412245 265.323828 320.036276 
C 263.699797 321.660306 262.787298 323.863274 262.787298 326.16 
C 262.787298 328.456726 263.699797 330.659694 265.323828 332.283724 
C 266.947859 333.907755 269.150826 334.820254 271.447552 334.820254 
z
" clip-path="url(#p726333c8b3)" style="fill: #1f77b4; fill-opacity: 0.5; stroke: #1f77b4; stroke-opacity: 0.5"/>
    <path d="M 271.447552 291.022258 
C 273.585688 291.022258 275.636539 290.172767 277.14843 288.660877 
C 278.66032 287.148987 279.50981 285.098136 279.50981 282.96 
C 279.50981 280.821864 278.66032 278.771013 277.14843 277.259123 
C 275.636539 275.747233 273.585688 274.897742 271.447552 274.897742 
C 269.309417 274.897742 267.258566 275.747233 265.746675 277.259123 
C 264.234785 278.771013 263.385295 280.821864 263.385295 282.96 
C 263.385295 285.098136 264.234785 287.148987 265.746675 288.660877 
C 267.258566 290.172767 269.309417 291.022258 271.447552 291.022258 
z
" clip-path="url(#p726333c8b3)" style="fill: #1f77b4; fill-opacity: 0.5; stroke: #1f77b4; stroke-opacity: 0.5"/>
    <path d="M 271.447552 242.922278 
C 272.286198 242.922278 273.090608 242.58908 273.68362 241.996068 
C 274.276633 241.403056 274.60983 240.598646 274.60983 239.76 
C 274.60983 238.921354 274.276633 238.116944 273.68362 237.523932 
C 273.090608 236.93092 272.286198 236.597722 271.447552 236.597722 
C 270.608907 236.597722 269.804497 236.93092 269.211484 237.523932 
C 268.618472 238.116944 268.285275 238.921354 268.285275 239.76 
C 268.285275 240.598646 268.618472 241.403056 269.211484 241.996068 
C 269.804497 242.58908 270.608907 242.922278 271.447552 242.922278 
z
" clip-path="url(#p726333c8b3)" style="fill: #1f77b4; fill-opacity: 0.5; stroke: #1f77b4; stroke-opacity: 0.5"/>
    <path d="M 271.447552 198.796068 
C 272.040565 198.796068 272.609368 198.560462 273.028691 198.141139 
C 273.448014 197.721816 273.68362 197.153012 273.68362 196.56 
C 273.68362 195.966988 273.448014 195.398184 273.028691 194.978861 
C 272.609368 194.559538 272.040565 194.323932 271.447552 194.323932 
C 270.85454 194.323932 270.285737 194.559538 269.866414 194.978861 
C 269.447091 195.398184 269.211484 195.966988 269.211484 196.56 
C 269.211484 197.153012 269.447091 197.721816 269.866414 198.141139 
C 270.285737 198.560462 270.85454 198.796068 271.447552 198.796068 
z
" clip-path="url(#p726333c8b3)" style="fill: #1f77b4; fill-opacity: 0.5; stroke: #1f77b4; stroke-opacity: 0.5"/>
    <path d="M 271.447552 155.596068 
C 272.040565 155.596068 272.609368 155.360462 273.028691 154.941139 
C 273.448014 154.521816 273.68362 153.953012 273.68362 153.36 
C 273.68362 152.766988 273.448014 152.198184 273.028691 151.778861 
C 272.609368 151.359538 272.040565 151.123932 271.447552 151.123932 
C 270.85454 151.123932 270.285737 151.359538 269.866414 151.778861 
C 269.447091 152.198184 269.211484 152.766988 269.211484 153.36 
C 269.211484 153.953012 269.447091 154.521816 269.866414 154.941139 
C 270.285737 155.360462 270.85454 155.596068 271.447552 155.596068 
z
" clip-path="url(#p726333c8b3)" style="fill: #1f77b4; fill-opacity: 0.5; stroke: #1f77b4; stroke-opacity: 0.5"/>
    <path d="M 271.447552 69.196068 
C 272.040565 69.196068 272.609368 68.960462 273.028691 68.541139 
C 273.448014 68.121816 273.68362 67.553012 273.68362 66.96 
C 273.68362 66.366988 273.448014 65.798184 273.028691 65.378861 
C 272.609368 64.959538 272.040565 64.723932 271.447552 64.723932 
C 270.85454 64.723932 270.285737 64.959538 269.866414 65.378861 
C 269.447091 65.798184 269.211484 66.366988 269.211484 66.96 
C 269.211484 67.553012 269.447091 68.121816 269.866414 68.541139 
C 270.285737 68.960462 270.85454 69.196068 271.447552 69.196068 
z
" clip-path="url(#p726333c8b3)" style="fill: #1f77b4; fill-opacity: 0.5; stroke: #1f77b4; stroke-opacity: 0.5"/>
    <path d="M 310.468531 387.387756 
C 315.249548 387.387756 319.835391 385.488238 323.21608 382.107549 
C 326.59677 378.726859 328.496288 374.141017 328.496288 369.36 
C 328.496288 364.578983 326.59677 359.993141 323.21608 356.612451 
C 319.835391 353.231762 315.249548 351.332244 310.468531 351.332244 
C 305.687515 351.332244 301.101672 353.231762 297.720983 356.612451 
C 294.340293 359.993141 292.440775 364.578983 292.440775 369.36 
C 292.440775 374.141017 294.340293 378.726859 297.720983 382.107549 
C 301.101672 385.488238 305.687515 387.387756 310.468531 387.387756 
z
" clip-path="url(#p726333c8b3)" style="fill: #1f77b4; fill-opacity: 0.5; stroke: #1f77b4; stroke-opacity: 0.5"/>
    <path d="M 310.468531 333.231068 
C 312.343801 333.231068 314.142516 332.486015 315.468531 331.16 
C 316.794547 329.833984 317.539599 328.035269 317.539599 326.16 
C 317.539599 324.284731 316.794547 322.486015 315.468531 321.16 
C 314.142516 319.833984 312.343801 319.088932 310.468531 319.088932 
C 308.593262 319.088932 306.794547 319.833984 305.468531 321.16 
C 304.142516 322.486015 303.397464 324.284731 303.397464 326.16 
C 303.397464 328.035269 304.142516 329.833984 305.468531 331.16 
C 306.794547 332.486015 308.593262 333.231068 310.468531 333.231068 
z
" clip-path="url(#p726333c8b3)" style="fill: #1f77b4; fill-opacity: 0.5; stroke: #1f77b4; stroke-opacity: 0.5"/>
    <path d="M 310.468531 286.832983 
C 311.495659 286.832983 312.480856 286.424901 313.207144 285.698613 
C 313.933433 284.972324 314.341515 283.987127 314.341515 282.96 
C 314.341515 281.932873 313.933433 280.947676 313.207144 280.221387 
C 312.480856 279.495099 311.495659 279.087017 310.468531 279.087017 
C 309.441404 279.087017 308.456207 279.495099 307.729919 280.221387 
C 307.00363 280.947676 306.595548 281.932873 306.595548 282.96 
C 306.595548 283.987127 307.00363 284.972324 307.729919 285.698613 
C 308.456207 286.424901 309.441404 286.832983 310.468531 286.832983 
z
" clip-path="url(#p726333c8b3)" style="fill: #1f77b4; fill-opacity: 0.5; stroke: #1f77b4; stroke-opacity: 0.5"/>
    <path d="M 310.468531 241.996068 
C 311.061544 241.996068 311.630347 241.760462 312.04967 241.341139 
C 312.468993 240.921816 312.704599 240.353012 312.704599 239.76 
C 312.704599 239.166988 312.468993 238.598184 312.04967 238.178861 
C 311.630347 237.759538 311.061544 237.523932 310.468531 237.523932 
C 309.875519 237.523932 309.306716 237.759538 308.887393 238.178861 
C 308.46807 238.598184 308.232463 239.166988 308.232463 239.76 
C 308.232463 240.353012 308.46807 240.921816 308.887393 241.341139 
C 309.306716 241.760462 309.875519 241.996068 310.468531 241.996068 
z
" clip-path="url(#p726333c8b3)" style="fill: #1f77b4; fill-opacity: 0.5; stroke: #1f77b4; stroke-opacity: 0.5"/>
    <path d="M 310.468531 199.722278 
C 311.307177 199.722278 312.111587 199.38908 312.704599 198.796068 
C 313.297612 198.203056 313.630809 197.398646 313.630809 196.56 
C 313.630809 195.721354 313.297612 194.916944 312.704599 194.323932 
C 312.111587 193.73092 311.307177 193.397722 310.468531 193.397722 
C 309.629886 193.397722 308.825476 193.73092 308.232463 194.323932 
C 307.639451 194.916944 307.306254 195.721354 307.306254 196.56 
C 307.306254 197.398646 307.639451 198.203056 308.232463 198.796068 
C 308.825476 199.38908 309.629886 199.722278 310.468531 199.722278 
z
" clip-path="url(#p726333c8b3)" style="fill: #1f77b4; fill-opacity: 0.5; stroke: #1f77b4; stroke-opacity: 0.5"/>
    <path d="M 310.468531 112.396068 
C 311.061544 112.396068 311.630347 112.160462 312.04967 111.741139 
C 312.468993 111.321816 312.704599 110.753012 312.704599 110.16 
C 312.704599 109.566988 312.468993 108.998184 312.04967 108.578861 
C 311.630347 108.159538 311.061544 107.923932 310.468531 107.923932 
C 309.875519 107.923932 309.306716 108.159538 308.887393 108.578861 
C 308.46807 108.998184 308.232463 109.566988 308.232463 110.16 
C 308.232463 110.753012 308.46807 111.321816 308.887393 111.741139 
C 309.306716 112.160462 309.875519 112.396068 310.468531 112.396068 
z
" clip-path="url(#p726333c8b3)" style="fill: #1f77b4; fill-opacity: 0.5; stroke: #1f77b4; stroke-opacity: 0.5"/>
    <path d="M 349.48951 383.851377 
C 353.332669 383.851377 357.018938 382.324474 359.736461 379.606951 
C 362.453984 376.889428 363.980887 373.203158 363.980887 369.36 
C 363.980887 365.516842 362.453984 361.830572 359.736461 359.113049 
C 357.018938 356.395526 353.332669 354.868623 349.48951 354.868623 
C 345.646352 354.868623 341.960083 356.395526 339.24256 359.113049 
C 336.525037 361.830572 334.998134 365.516842 334.998134 369.36 
C 334.998134 373.203158 336.525037 376.889428 339.24256 379.606951 
C 341.960083 382.324474 345.646352 383.851377 349.48951 383.851377 
z
" clip-path="url(#p726333c8b3)" style="fill: #1f77b4; fill-opacity: 0.5; stroke: #1f77b4; stroke-opacity: 0.5"/>
    <path d="M 349.48951 332.07608 
C 351.058473 332.07608 352.563386 331.452724 353.672811 330.3433 
C 354.782235 329.233876 355.40559 327.728963 355.40559 326.16 
C 355.40559 324.591037 354.782235 323.086124 353.672811 321.9767 
C 352.563386 320.867276 351.058473 320.24392 349.48951 320.24392 
C 347.920548 320.24392 346.415635 320.867276 345.30621 321.9767 
C 344.196786 323.086124 343.573431 324.591037 343.573431 326.16 
C 343.573431 327.728963 344.196786 329.233876 345.30621 330.3433 
C 346.415635 331.452724 347.920548 332.07608 349.48951 332.07608 
z
" clip-path="url(#p726333c8b3)" style="fill: #1f77b4; fill-opacity: 0.5; stroke: #1f77b4; stroke-opacity: 0.5"/>
    <path d="M 349.48951 289.668204 
C 351.268547 289.668204 352.974958 288.961385 354.232927 287.703416 
C 355.490896 286.445448 356.197714 284.739036 356.197714 282.96 
C 356.197714 281.180964 355.490896 279.474552 354.232927 278.216584 
C 352.974958 276.958615 351.268547 276.251796 349.48951 276.251796 
C 347.710474 276.251796 346.004063 276.958615 344.746094 278.216584 
C 343.488125 279.474552 342.781307 281.180964 342.781307 282.96 
C 342.781307 284.739036 343.488125 286.445448 344.746094 287.703416 
C 346.004063 288.961385 347.710474 289.668204 349.48951 289.668204 
z
" clip-path="url(#p726333c8b3)" style="fill: #1f77b4; fill-opacity: 0.5; stroke: #1f77b4; stroke-opacity: 0.5"/>
    <path d="M 349.48951 198.796068 
C 350.082523 198.796068 350.651326 198.560462 351.070649 198.141139 
C 351.489972 197.721816 351.725578 197.153012 351.725578 196.56 
C 351.725578 195.966988 351.489972 195.398184 351.070649 194.978861 
C 350.651326 194.559538 350.082523 194.323932 349.48951 194.323932 
C 348.896498 194.323932 348.327695 194.559538 347.908372 194.978861 
C 347.489049 195.398184 347.253443 195.966988 347.253443 196.56 
C 347.253443 197.153012 347.489049 197.721816 347.908372 198.141139 
C 348.327695 198.560462 348.896498 198.796068 349.48951 198.796068 
z
" clip-path="url(#p726333c8b3)" style="fill: #1f77b4; fill-opacity: 0.5; stroke: #1f77b4; stroke-opacity: 0.5"/>
    <path d="M 349.48951 155.596068 
C 350.082523 155.596068 350.651326 155.360462 351.070649 154.941139 
C 351.489972 154.521816 351.725578 153.953012 351.725578 153.36 
C 351.725578 152.766988 351.489972 152.198184 351.070649 151.778861 
C 350.651326 151.359538 350.082523 151.123932 349.48951 151.123932 
C 348.896498 151.123932 348.327695 151.359538 347.908372 151.778861 
C 347.489049 152.198184 347.253443 152.766988 347.253443 153.36 
C 347.253443 153.953012 347.489049 154.521816 347.908372 154.941139 
C 348.327695 155.360462 348.896498 155.596068 349.48951 155.596068 
z
" clip-path="url(#p726333c8b3)" style="fill: #1f77b4; fill-opacity: 0.5; stroke: #1f77b4; stroke-opacity: 0.5"/>
    <path d="M 388.51049 377.105967 
C 390.564744 377.105967 392.535138 376.289803 393.987715 374.837226 
C 395.440292 373.384648 396.256456 371.414254 396.256456 369.36 
C 396.256456 367.305746 395.440292 365.335352 393.987715 363.882774 
C 392.535138 362.430197 390.564744 361.614033 388.51049 361.614033 
C 386.456235 361.614033 384.485841 362.430197 383.033264 363.882774 
C 381.580687 365.335352 380.764523 367.305746 380.764523 369.36 
C 380.764523 371.414254 381.580687 373.384648 383.033264 374.837226 
C 384.485841 376.289803 386.456235 377.105967 388.51049 377.105967 
z
" clip-path="url(#p726333c8b3)" style="fill: #1f77b4; fill-opacity: 0.5; stroke: #1f77b4; stroke-opacity: 0.5"/>
    <path d="M 388.51049 331.16 
C 389.836505 331.16 391.108389 330.633168 392.046023 329.695534 
C 392.983658 328.757899 393.51049 327.486015 393.51049 326.16 
C 393.51049 324.833984 392.983658 323.562101 392.046023 322.624466 
C 391.108389 321.686832 389.836505 321.16 388.51049 321.16 
C 387.184474 321.16 385.91259 321.686832 384.974956 322.624466 
C 384.037321 323.562101 383.51049 324.833984 383.51049 326.16 
C 383.51049 327.486015 384.037321 328.757899 384.974956 329.695534 
C 385.91259 330.633168 387.184474 331.16 388.51049 331.16 
z
" clip-path="url(#p726333c8b3)" style="fill: #1f77b4; fill-opacity: 0.5; stroke: #1f77b4; stroke-opacity: 0.5"/>
    <path d="M 388.51049 242.922278 
C 389.349135 242.922278 390.153545 242.58908 390.746557 241.996068 
C 391.33957 241.403056 391.672767 240.598646 391.672767 239.76 
C 391.672767 238.921354 391.33957 238.116944 390.746557 237.523932 
C 390.153545 236.93092 389.349135 236.597722 388.51049 236.597722 
C 387.671844 236.597722 386.867434 236.93092 386.274422 237.523932 
C 385.681409 238.116944 385.348212 238.921354 385.348212 239.76 
C 385.348212 240.598646 385.681409 241.403056 386.274422 241.996068 
C 386.867434 242.58908 387.671844 242.922278 388.51049 242.922278 
z
" clip-path="url(#p726333c8b3)" style="fill: #1f77b4; fill-opacity: 0.5; stroke: #1f77b4; stroke-opacity: 0.5"/>
    <path d="M 388.51049 198.796068 
C 389.103502 198.796068 389.672305 198.560462 390.091628 198.141139 
C 390.510951 197.721816 390.746557 197.153012 390.746557 196.56 
C 390.746557 195.966988 390.510951 195.398184 390.091628 194.978861 
C 389.672305 194.559538 389.103502 194.323932 388.51049 194.323932 
C 387.917477 194.323932 387.348674 194.559538 386.929351 194.978861 
C 386.510028 195.398184 386.274422 195.966988 386.274422 196.56 
C 386.274422 197.153012 386.510028 197.721816 386.929351 198.141139 
C 387.348674 198.560462 387.917477 198.796068 388.51049 198.796068 
z
" clip-path="url(#p726333c8b3)" style="fill: #1f77b4; fill-opacity: 0.5; stroke: #1f77b4; stroke-opacity: 0.5"/>
    <path d="M 388.51049 155.596068 
C 389.103502 155.596068 389.672305 155.360462 390.091628 154.941139 
C 390.510951 154.521816 390.746557 153.953012 390.746557 153.36 
C 390.746557 152.766988 390.510951 152.198184 390.091628 151.778861 
C 389.672305 151.359538 389.103502 151.123932 388.51049 151.123932 
C 387.917477 151.123932 387.348674 151.359538 386.929351 151.778861 
C 386.510028 152.198184 386.274422 152.766988 386.274422 153.36 
C 386.274422 153.953012 386.510028 154.521816 386.929351 154.941139 
C 387.348674 155.360462 387.917477 155.596068 388.51049 155.596068 
z
" clip-path="url(#p726333c8b3)" style="fill: #1f77b4; fill-opacity: 0.5; stroke: #1f77b4; stroke-opacity: 0.5"/>
    <path d="M 427.531469 378.846833 
C 430.047406 378.846833 432.460636 377.84724 434.239672 376.068204 
C 436.018709 374.289167 437.018302 371.875938 437.018302 369.36 
C 437.018302 366.844062 436.018709 364.430833 434.239672 362.651796 
C 432.460636 360.87276 430.047406 359.873167 427.531469 359.873167 
C 425.015531 359.873167 422.602301 360.87276 420.823265 362.651796 
C 419.044228 364.430833 418.044636 366.844062 418.044636 369.36 
C 418.044636 371.875938 419.044228 374.289167 420.823265 376.068204 
C 422.602301 377.84724 425.015531 378.846833 427.531469 378.846833 
z
" clip-path="url(#p726333c8b3)" style="fill: #1f77b4; fill-opacity: 0.5; stroke: #1f77b4; stroke-opacity: 0.5"/>
    <path d="M 427.531469 329.322278 
C 428.370114 329.322278 429.174524 328.98908 429.767537 328.396068 
C 430.360549 327.803056 430.693746 326.998646 430.693746 326.16 
C 430.693746 325.321354 430.360549 324.516944 429.767537 323.923932 
C 429.174524 323.33092 428.370114 322.997722 427.531469 322.997722 
C 426.692823 322.997722 425.888413 323.33092 425.295401 323.923932 
C 424.702388 324.516944 424.369191 325.321354 424.369191 326.16 
C 424.369191 326.998646 424.702388 327.803056 425.295401 328.396068 
C 425.888413 328.98908 426.692823 329.322278 427.531469 329.322278 
z
" clip-path="url(#p726333c8b3)" style="fill: #1f77b4; fill-opacity: 0.5; stroke: #1f77b4; stroke-opacity: 0.5"/>
    <path d="M 427.531469 285.196068 
C 428.124481 285.196068 428.693284 284.960462 429.112607 284.541139 
C 429.53193 284.121816 429.767537 283.553012 429.767537 282.96 
C 429.767537 282.366988 429.53193 281.798184 429.112607 281.378861 
C 428.693284 280.959538 428.124481 280.723932 427.531469 280.723932 
C 426.938456 280.723932 426.369653 280.959538 425.95033 281.378861 
C 425.531007 281.798184 425.295401 282.366988 425.295401 282.96 
C 425.295401 283.553012 425.531007 284.121816 425.95033 284.541139 
C 426.369653 284.960462 426.938456 285.196068 427.531469 285.196068 
z
" clip-path="url(#p726333c8b3)" style="fill: #1f77b4; fill-opacity: 0.5; stroke: #1f77b4; stroke-opacity: 0.5"/>
    <path d="M 427.531469 198.796068 
C 428.124481 198.796068 428.693284 198.560462 429.112607 198.141139 
C 429.53193 197.721816 429.767537 197.153012 429.767537 196.56 
C 429.767537 195.966988 429.53193 195.398184 429.112607 194.978861 
C 428.693284 194.559538 428.124481 194.323932 427.531469 194.323932 
C 426.938456 194.323932 426.369653 194.559538 425.95033 194.978861 
C 425.531007 195.398184 425.295401 195.966988 425.295401 196.56 
C 425.295401 197.153012 425.531007 197.721816 425.95033 198.141139 
C 426.369653 198.560462 426.938456 198.796068 427.531469 198.796068 
z
" clip-path="url(#p726333c8b3)" style="fill: #1f77b4; fill-opacity: 0.5; stroke: #1f77b4; stroke-opacity: 0.5"/>
    <path d="M 466.552448 374.36 
C 467.878463 374.36 469.150347 373.833168 470.087981 372.895534 
C 471.025616 371.957899 471.552448 370.686015 471.552448 369.36 
C 471.552448 368.033985 471.025616 366.762101 470.087981 365.824466 
C 469.150347 364.886832 467.878463 364.36 466.552448 364.36 
C 465.226432 364.36 463.954548 364.886832 463.016914 365.824466 
C 462.079279 366.762101 461.552448 368.033985 461.552448 369.36 
C 461.552448 370.686015 462.079279 371.957899 463.016914 372.895534 
C 463.954548 373.833168 465.226432 374.36 466.552448 374.36 
z
" clip-path="url(#p726333c8b3)" style="fill: #1f77b4; fill-opacity: 0.5; stroke: #1f77b4; stroke-opacity: 0.5"/>
    <path d="M 466.552448 328.396068 
C 467.14546 328.396068 467.714263 328.160462 468.133586 327.741139 
C 468.552909 327.321816 468.788516 326.753012 468.788516 326.16 
C 468.788516 325.566988 468.552909 324.998184 468.133586 324.578861 
C 467.714263 324.159538 467.14546 323.923932 466.552448 323.923932 
C 465.959435 323.923932 465.390632 324.159538 464.971309 324.578861 
C 464.551986 324.998184 464.31638 325.566988 464.31638 326.16 
C 464.31638 326.753012 464.551986 327.321816 464.971309 327.741139 
C 465.390632 328.160462 465.959435 328.396068 466.552448 328.396068 
z
" clip-path="url(#p726333c8b3)" style="fill: #1f77b4; fill-opacity: 0.5; stroke: #1f77b4; stroke-opacity: 0.5"/>
    <path d="M 466.552448 155.596068 
C 467.14546 155.596068 467.714263 155.360462 468.133586 154.941139 
C 468.552909 154.521816 468.788516 153.953012 468.788516 153.36 
C 468.788516 152.766988 468.552909 152.198184 468.133586 151.778861 
C 467.714263 151.359538 467.14546 151.123932 466.552448 151.123932 
C 465.959435 151.123932 465.390632 151.359538 464.971309 151.778861 
C 464.551986 152.198184 464.31638 152.766988 464.31638 153.36 
C 464.31638 153.953012 464.551986 154.521816 464.971309 154.941139 
C 465.390632 155.360462 465.959435 155.596068 466.552448 155.596068 
z
" clip-path="url(#p726333c8b3)" style="fill: #1f77b4; fill-opacity: 0.5; stroke: #1f77b4; stroke-opacity: 0.5"/>
    <path d="M 505.573427 371.596068 
C 506.166439 371.596068 506.735242 371.360462 507.154565 370.941139 
C 507.573888 370.521816 507.809495 369.953012 507.809495 369.36 
C 507.809495 368.766988 507.573888 368.198184 507.154565 367.778861 
C 506.735242 367.359538 506.166439 367.123932 505.573427 367.123932 
C 504.980414 367.123932 504.411611 367.359538 503.992288 367.778861 
C 503.572965 368.198184 503.337359 368.766988 503.337359 369.36 
C 503.337359 369.953012 503.572965 370.521816 503.992288 370.941139 
C 504.411611 371.360462 504.980414 371.596068 505.573427 371.596068 
z
" clip-path="url(#p726333c8b3)" style="fill: #1f77b4; fill-opacity: 0.5; stroke: #1f77b4; stroke-opacity: 0.5"/>
    <path d="M 505.573427 285.196068 
C 506.166439 285.196068 506.735242 284.960462 507.154565 284.541139 
C 507.573888 284.121816 507.809495 283.553012 507.809495 282.96 
C 507.809495 282.366988 507.573888 281.798184 507.154565 281.378861 
C 506.735242 280.959538 506.166439 280.723932 505.573427 280.723932 
C 504.980414 280.723932 504.411611 280.959538 503.992288 281.378861 
C 503.572965 281.798184 503.337359 282.366988 503.337359 282.96 
C 503.337359 283.553012 503.572965 284.121816 503.992288 284.541139 
C 504.411611 284.960462 504.980414 285.196068 505.573427 285.196068 
z
" clip-path="url(#p726333c8b3)" style="fill: #1f77b4; fill-opacity: 0.5; stroke: #1f77b4; stroke-opacity: 0.5"/>
    <path d="M 505.573427 198.796068 
C 506.166439 198.796068 506.735242 198.560462 507.154565 198.141139 
C 507.573888 197.721816 507.809495 197.153012 507.809495 196.56 
C 507.809495 195.966988 507.573888 195.398184 507.154565 194.978861 
C 506.735242 194.559538 506.166439 194.323932 505.573427 194.323932 
C 504.980414 194.323932 504.411611 194.559538 503.992288 194.978861 
C 503.572965 195.398184 503.337359 195.966988 503.337359 196.56 
C 503.337359 197.153012 503.572965 197.721816 503.992288 198.141139 
C 504.411611 198.560462 504.980414 198.796068 505.573427 198.796068 
z
" clip-path="url(#p726333c8b3)" style="fill: #1f77b4; fill-opacity: 0.5; stroke: #1f77b4; stroke-opacity: 0.5"/>
    <path d="M 544.594406 69.196068 
C 545.187418 69.196068 545.756222 68.960462 546.175544 68.541139 
C 546.594867 68.121816 546.830474 67.553012 546.830474 66.96 
C 546.830474 66.366988 546.594867 65.798184 546.175544 65.378861 
C 545.756222 64.959538 545.187418 64.723932 544.594406 64.723932 
C 544.001393 64.723932 543.43259 64.959538 543.013267 65.378861 
C 542.593944 65.798184 542.358338 66.366988 542.358338 66.96 
C 542.358338 67.553012 542.593944 68.121816 543.013267 68.541139 
C 543.43259 68.960462 544.001393 69.196068 544.594406 69.196068 
z
" clip-path="url(#p726333c8b3)" style="fill: #1f77b4; fill-opacity: 0.5; stroke: #1f77b4; stroke-opacity: 0.5"/>
    <path d="M 622.636364 285.196068 
C 623.229376 285.196068 623.79818 284.960462 624.217502 284.541139 
C 624.636825 284.121816 624.872432 283.553012 624.872432 282.96 
C 624.872432 282.366988 624.636825 281.798184 624.217502 281.378861 
C 623.79818 280.959538 623.229376 280.723932 622.636364 280.723932 
C 622.043351 280.723932 621.474548 280.959538 621.055225 281.378861 
C 620.635902 281.798184 620.400296 282.366988 620.400296 282.96 
C 620.400296 283.553012 620.635902 284.121816 621.055225 284.541139 
C 621.474548 284.960462 622.043351 285.196068 622.636364 285.196068 
z
" clip-path="url(#p726333c8b3)" style="fill: #1f77b4; fill-opacity: 0.5; stroke: #1f77b4; stroke-opacity: 0.5"/>
   </g>
   <g id="matplotlib.axis_1">
    <g id="xtick_1">
     <g id="line2d_1">
      <defs>
       <path id="ma93e4cd0d4" d="M 0 0 
L 0 3.5 
" style="stroke: #000000; stroke-width: 0.8"/>
      </defs>
      <g>
       <use xlink:href="#ma93e4cd0d4" x="115.363636" y="384.48" style="stroke: #000000; stroke-width: 0.8"/>
      </g>
     </g>
     <g id="text_1">
      <!-- −0.4 -->
      <g transform="translate(103.22223 399.078438)scale(0.1 -0.1)">
       <defs>
        <path id="DejaVuSans-2212" d="M 678 2272 
L 4684 2272 
L 4684 1741 
L 678 1741 
L 678 2272 
z
" transform="scale(0.015625)"/>
        <path id="DejaVuSans-30" d="M 2034 4250 
Q 1547 4250 1301 3770 
Q 1056 3291 1056 2328 
Q 1056 1369 1301 889 
Q 1547 409 2034 409 
Q 2525 409 2770 889 
Q 3016 1369 3016 2328 
Q 3016 3291 2770 3770 
Q 2525 4250 2034 4250 
z
M 2034 4750 
Q 2819 4750 3233 4129 
Q 3647 3509 3647 2328 
Q 3647 1150 3233 529 
Q 2819 -91 2034 -91 
Q 1250 -91 836 529 
Q 422 1150 422 2328 
Q 422 3509 836 4129 
Q 1250 4750 2034 4750 
z
" transform="scale(0.015625)"/>
        <path id="DejaVuSans-2e" d="M 684 794 
L 1344 794 
L 1344 0 
L 684 0 
L 684 794 
z
" transform="scale(0.015625)"/>
        <path id="DejaVuSans-34" d="M 2419 4116 
L 825 1625 
L 2419 1625 
L 2419 4116 
z
M 2253 4666 
L 3047 4666 
L 3047 1625 
L 3713 1625 
L 3713 1100 
L 3047 1100 
L 3047 0 
L 2419 0 
L 2419 1100 
L 313 1100 
L 313 1709 
L 2253 4666 
z
" transform="scale(0.015625)"/>
       </defs>
       <use xlink:href="#DejaVuSans-2212"/>
       <use xlink:href="#DejaVuSans-30" x="83.789062"/>
       <use xlink:href="#DejaVuSans-2e" x="147.412109"/>
       <use xlink:href="#DejaVuSans-34" x="179.199219"/>
      </g>
     </g>
    </g>
    <g id="xtick_2">
     <g id="line2d_2">
      <g>
       <use xlink:href="#ma93e4cd0d4" x="193.405594" y="384.48" style="stroke: #000000; stroke-width: 0.8"/>
      </g>
     </g>
     <g id="text_2">
      <!-- −0.2 -->
      <g transform="translate(181.264188 399.078438)scale(0.1 -0.1)">
       <defs>
        <path id="DejaVuSans-32" d="M 1228 531 
L 3431 531 
L 3431 0 
L 469 0 
L 469 531 
Q 828 903 1448 1529 
Q 2069 2156 2228 2338 
Q 2531 2678 2651 2914 
Q 2772 3150 2772 3378 
Q 2772 3750 2511 3984 
Q 2250 4219 1831 4219 
Q 1534 4219 1204 4116 
Q 875 4013 500 3803 
L 500 4441 
Q 881 4594 1212 4672 
Q 1544 4750 1819 4750 
Q 2544 4750 2975 4387 
Q 3406 4025 3406 3419 
Q 3406 3131 3298 2873 
Q 3191 2616 2906 2266 
Q 2828 2175 2409 1742 
Q 1991 1309 1228 531 
z
" transform="scale(0.015625)"/>
       </defs>
       <use xlink:href="#DejaVuSans-2212"/>
       <use xlink:href="#DejaVuSans-30" x="83.789062"/>
       <use xlink:href="#DejaVuSans-2e" x="147.412109"/>
       <use xlink:href="#DejaVuSans-32" x="179.199219"/>
      </g>
     </g>
    </g>
    <g id="xtick_3">
     <g id="line2d_3">
      <g>
       <use xlink:href="#ma93e4cd0d4" x="271.447552" y="384.48" style="stroke: #000000; stroke-width: 0.8"/>
      </g>
     </g>
     <g id="text_3">
      <!-- 0.0 -->
      <g transform="translate(263.49599 399.078438)scale(0.1 -0.1)">
       <use xlink:href="#DejaVuSans-30"/>
       <use xlink:href="#DejaVuSans-2e" x="63.623047"/>
       <use xlink:href="#DejaVuSans-30" x="95.410156"/>
      </g>
     </g>
    </g>
    <g id="xtick_4">
     <g id="line2d_4">
      <g>
       <use xlink:href="#ma93e4cd0d4" x="349.48951" y="384.48" style="stroke: #000000; stroke-width: 0.8"/>
      </g>
     </g>
     <g id="text_4">
      <!-- 0.2 -->
      <g transform="translate(341.537948 399.078438)scale(0.1 -0.1)">
       <use xlink:href="#DejaVuSans-30"/>
       <use xlink:href="#DejaVuSans-2e" x="63.623047"/>
       <use xlink:href="#DejaVuSans-32" x="95.410156"/>
      </g>
     </g>
    </g>
    <g id="xtick_5">
     <g id="line2d_5">
      <g>
       <use xlink:href="#ma93e4cd0d4" x="427.531469" y="384.48" style="stroke: #000000; stroke-width: 0.8"/>
      </g>
     </g>
     <g id="text_5">
      <!-- 0.4 -->
      <g transform="translate(419.579906 399.078438)scale(0.1 -0.1)">
       <use xlink:href="#DejaVuSans-30"/>
       <use xlink:href="#DejaVuSans-2e" x="63.623047"/>
       <use xlink:href="#DejaVuSans-34" x="95.410156"/>
      </g>
     </g>
    </g>
    <g id="xtick_6">
     <g id="line2d_6">
      <g>
       <use xlink:href="#ma93e4cd0d4" x="505.573427" y="384.48" style="stroke: #000000; stroke-width: 0.8"/>
      </g>
     </g>
     <g id="text_6">
      <!-- 0.6 -->
      <g transform="translate(497.621864 399.078438)scale(0.1 -0.1)">
       <defs>
        <path id="DejaVuSans-36" d="M 2113 2584 
Q 1688 2584 1439 2293 
Q 1191 2003 1191 1497 
Q 1191 994 1439 701 
Q 1688 409 2113 409 
Q 2538 409 2786 701 
Q 3034 994 3034 1497 
Q 3034 2003 2786 2293 
Q 2538 2584 2113 2584 
z
M 3366 4563 
L 3366 3988 
Q 3128 4100 2886 4159 
Q 2644 4219 2406 4219 
Q 1781 4219 1451 3797 
Q 1122 3375 1075 2522 
Q 1259 2794 1537 2939 
Q 1816 3084 2150 3084 
Q 2853 3084 3261 2657 
Q 3669 2231 3669 1497 
Q 3669 778 3244 343 
Q 2819 -91 2113 -91 
Q 1303 -91 875 529 
Q 447 1150 447 2328 
Q 447 3434 972 4092 
Q 1497 4750 2381 4750 
Q 2619 4750 2861 4703 
Q 3103 4656 3366 4563 
z
" transform="scale(0.015625)"/>
       </defs>
       <use xlink:href="#DejaVuSans-30"/>
       <use xlink:href="#DejaVuSans-2e" x="63.623047"/>
       <use xlink:href="#DejaVuSans-36" x="95.410156"/>
      </g>
     </g>
    </g>
    <g id="xtick_7">
     <g id="line2d_7">
      <g>
       <use xlink:href="#ma93e4cd0d4" x="583.615385" y="384.48" style="stroke: #000000; stroke-width: 0.8"/>
      </g>
     </g>
     <g id="text_7">
      <!-- 0.8 -->
      <g transform="translate(575.663822 399.078438)scale(0.1 -0.1)">
       <defs>
        <path id="DejaVuSans-38" d="M 2034 2216 
Q 1584 2216 1326 1975 
Q 1069 1734 1069 1313 
Q 1069 891 1326 650 
Q 1584 409 2034 409 
Q 2484 409 2743 651 
Q 3003 894 3003 1313 
Q 3003 1734 2745 1975 
Q 2488 2216 2034 2216 
z
M 1403 2484 
Q 997 2584 770 2862 
Q 544 3141 544 3541 
Q 544 4100 942 4425 
Q 1341 4750 2034 4750 
Q 2731 4750 3128 4425 
Q 3525 4100 3525 3541 
Q 3525 3141 3298 2862 
Q 3072 2584 2669 2484 
Q 3125 2378 3379 2068 
Q 3634 1759 3634 1313 
Q 3634 634 3220 271 
Q 2806 -91 2034 -91 
Q 1263 -91 848 271 
Q 434 634 434 1313 
Q 434 1759 690 2068 
Q 947 2378 1403 2484 
z
M 1172 3481 
Q 1172 3119 1398 2916 
Q 1625 2713 2034 2713 
Q 2441 2713 2670 2916 
Q 2900 3119 2900 3481 
Q 2900 3844 2670 4047 
Q 2441 4250 2034 4250 
Q 1625 4250 1398 4047 
Q 1172 3844 1172 3481 
z
" transform="scale(0.015625)"/>
       </defs>
       <use xlink:href="#DejaVuSans-30"/>
       <use xlink:href="#DejaVuSans-2e" x="63.623047"/>
       <use xlink:href="#DejaVuSans-38" x="95.410156"/>
      </g>
     </g>
    </g>
    <g id="text_8">
     <!-- diff @P10 -->
     <g transform="translate(344.95 412.756563)scale(0.1 -0.1)">
      <defs>
       <path id="DejaVuSans-64" d="M 2906 2969 
L 2906 4863 
L 3481 4863 
L 3481 0 
L 2906 0 
L 2906 525 
Q 2725 213 2448 61 
Q 2172 -91 1784 -91 
Q 1150 -91 751 415 
Q 353 922 353 1747 
Q 353 2572 751 3078 
Q 1150 3584 1784 3584 
Q 2172 3584 2448 3432 
Q 2725 3281 2906 2969 
z
M 947 1747 
Q 947 1113 1208 752 
Q 1469 391 1925 391 
Q 2381 391 2643 752 
Q 2906 1113 2906 1747 
Q 2906 2381 2643 2742 
Q 2381 3103 1925 3103 
Q 1469 3103 1208 2742 
Q 947 2381 947 1747 
z
" transform="scale(0.015625)"/>
       <path id="DejaVuSans-69" d="M 603 3500 
L 1178 3500 
L 1178 0 
L 603 0 
L 603 3500 
z
M 603 4863 
L 1178 4863 
L 1178 4134 
L 603 4134 
L 603 4863 
z
" transform="scale(0.015625)"/>
       <path id="DejaVuSans-66" d="M 2375 4863 
L 2375 4384 
L 1825 4384 
Q 1516 4384 1395 4259 
Q 1275 4134 1275 3809 
L 1275 3500 
L 2222 3500 
L 2222 3053 
L 1275 3053 
L 1275 0 
L 697 0 
L 697 3053 
L 147 3053 
L 147 3500 
L 697 3500 
L 697 3744 
Q 697 4328 969 4595 
Q 1241 4863 1831 4863 
L 2375 4863 
z
" transform="scale(0.015625)"/>
       <path id="DejaVuSans-20" transform="scale(0.015625)"/>
       <path id="DejaVuSans-40" d="M 2381 1678 
Q 2381 1231 2603 976 
Q 2825 722 3213 722 
Q 3597 722 3817 978 
Q 4038 1234 4038 1678 
Q 4038 2116 3813 2373 
Q 3588 2631 3206 2631 
Q 2828 2631 2604 2375 
Q 2381 2119 2381 1678 
z
M 4084 744 
Q 3897 503 3655 389 
Q 3413 275 3091 275 
Q 2553 275 2217 664 
Q 1881 1053 1881 1678 
Q 1881 2303 2218 2693 
Q 2556 3084 3091 3084 
Q 3413 3084 3656 2967 
Q 3900 2850 4084 2613 
L 4084 3022 
L 4531 3022 
L 4531 722 
Q 4988 791 5245 1139 
Q 5503 1488 5503 2041 
Q 5503 2375 5404 2669 
Q 5306 2963 5106 3213 
Q 4781 3622 4314 3839 
Q 3847 4056 3297 4056 
Q 2913 4056 2559 3954 
Q 2206 3853 1906 3653 
Q 1416 3334 1139 2817 
Q 863 2300 863 1697 
Q 863 1200 1042 765 
Q 1222 331 1563 0 
Q 1891 -325 2322 -495 
Q 2753 -666 3244 -666 
Q 3647 -666 4036 -530 
Q 4425 -394 4750 -141 
L 5031 -488 
Q 4641 -791 4180 -952 
Q 3719 -1113 3244 -1113 
Q 2666 -1113 2153 -908 
Q 1641 -703 1241 -313 
Q 841 78 631 592 
Q 422 1106 422 1697 
Q 422 2266 634 2781 
Q 847 3297 1241 3688 
Q 1644 4084 2172 4295 
Q 2700 4506 3291 4506 
Q 3953 4506 4520 4234 
Q 5088 3963 5472 3463 
Q 5706 3156 5829 2797 
Q 5953 2438 5953 2053 
Q 5953 1231 5456 756 
Q 4959 281 4084 263 
L 4084 744 
z
" transform="scale(0.015625)"/>
       <path id="DejaVuSans-50" d="M 1259 4147 
L 1259 2394 
L 2053 2394 
Q 2494 2394 2734 2622 
Q 2975 2850 2975 3272 
Q 2975 3691 2734 3919 
Q 2494 4147 2053 4147 
L 1259 4147 
z
M 628 4666 
L 2053 4666 
Q 2838 4666 3239 4311 
Q 3641 3956 3641 3272 
Q 3641 2581 3239 2228 
Q 2838 1875 2053 1875 
L 1259 1875 
L 1259 0 
L 628 0 
L 628 4666 
z
" transform="scale(0.015625)"/>
       <path id="DejaVuSans-31" d="M 794 531 
L 1825 531 
L 1825 4091 
L 703 3866 
L 703 4441 
L 1819 4666 
L 2450 4666 
L 2450 531 
L 3481 531 
L 3481 0 
L 794 0 
L 794 531 
z
" transform="scale(0.015625)"/>
      </defs>
      <use xlink:href="#DejaVuSans-64"/>
      <use xlink:href="#DejaVuSans-69" x="63.476562"/>
      <use xlink:href="#DejaVuSans-66" x="91.259766"/>
      <use xlink:href="#DejaVuSans-66" x="126.464844"/>
      <use xlink:href="#DejaVuSans-20" x="161.669922"/>
      <use xlink:href="#DejaVuSans-40" x="193.457031"/>
      <use xlink:href="#DejaVuSans-50" x="293.457031"/>
      <use xlink:href="#DejaVuSans-31" x="353.759766"/>
      <use xlink:href="#DejaVuSans-30" x="417.382812"/>
     </g>
    </g>
   </g>
   <g id="matplotlib.axis_2">
    <g id="ytick_1">
     <g id="line2d_8">
      <defs>
       <path id="m0ce76244bf" d="M 0 0 
L -3.5 0 
" style="stroke: #000000; stroke-width: 0.8"/>
      </defs>
      <g>
       <use xlink:href="#m0ce76244bf" x="90" y="369.36" style="stroke: #000000; stroke-width: 0.8"/>
      </g>
     </g>
     <g id="text_9">
      <!-- 0 -->
      <g transform="translate(76.6375 373.159219)scale(0.1 -0.1)">
       <use xlink:href="#DejaVuSans-30"/>
      </g>
     </g>
    </g>
    <g id="ytick_2">
     <g id="line2d_9">
      <g>
       <use xlink:href="#m0ce76244bf" x="90" y="326.16" style="stroke: #000000; stroke-width: 0.8"/>
      </g>
     </g>
     <g id="text_10">
      <!-- 1 -->
      <g transform="translate(76.6375 329.959219)scale(0.1 -0.1)">
       <use xlink:href="#DejaVuSans-31"/>
      </g>
     </g>
    </g>
    <g id="ytick_3">
     <g id="line2d_10">
      <g>
       <use xlink:href="#m0ce76244bf" x="90" y="282.96" style="stroke: #000000; stroke-width: 0.8"/>
      </g>
     </g>
     <g id="text_11">
      <!-- 2 -->
      <g transform="translate(76.6375 286.759219)scale(0.1 -0.1)">
       <use xlink:href="#DejaVuSans-32"/>
      </g>
     </g>
    </g>
    <g id="ytick_4">
     <g id="line2d_11">
      <g>
       <use xlink:href="#m0ce76244bf" x="90" y="239.76" style="stroke: #000000; stroke-width: 0.8"/>
      </g>
     </g>
     <g id="text_12">
      <!-- 3 -->
      <g transform="translate(76.6375 243.559219)scale(0.1 -0.1)">
       <defs>
        <path id="DejaVuSans-33" d="M 2597 2516 
Q 3050 2419 3304 2112 
Q 3559 1806 3559 1356 
Q 3559 666 3084 287 
Q 2609 -91 1734 -91 
Q 1441 -91 1130 -33 
Q 819 25 488 141 
L 488 750 
Q 750 597 1062 519 
Q 1375 441 1716 441 
Q 2309 441 2620 675 
Q 2931 909 2931 1356 
Q 2931 1769 2642 2001 
Q 2353 2234 1838 2234 
L 1294 2234 
L 1294 2753 
L 1863 2753 
Q 2328 2753 2575 2939 
Q 2822 3125 2822 3475 
Q 2822 3834 2567 4026 
Q 2313 4219 1838 4219 
Q 1578 4219 1281 4162 
Q 984 4106 628 3988 
L 628 4550 
Q 988 4650 1302 4700 
Q 1616 4750 1894 4750 
Q 2613 4750 3031 4423 
Q 3450 4097 3450 3541 
Q 3450 3153 3228 2886 
Q 3006 2619 2597 2516 
z
" transform="scale(0.015625)"/>
       </defs>
       <use xlink:href="#DejaVuSans-33"/>
      </g>
     </g>
    </g>
    <g id="ytick_5">
     <g id="line2d_12">
      <g>
       <use xlink:href="#m0ce76244bf" x="90" y="196.56" style="stroke: #000000; stroke-width: 0.8"/>
      </g>
     </g>
     <g id="text_13">
      <!-- 4 -->
      <g transform="translate(76.6375 200.359219)scale(0.1 -0.1)">
       <use xlink:href="#DejaVuSans-34"/>
      </g>
     </g>
    </g>
    <g id="ytick_6">
     <g id="line2d_13">
      <g>
       <use xlink:href="#m0ce76244bf" x="90" y="153.36" style="stroke: #000000; stroke-width: 0.8"/>
      </g>
     </g>
     <g id="text_14">
      <!-- 5 -->
      <g transform="translate(76.6375 157.159219)scale(0.1 -0.1)">
       <defs>
        <path id="DejaVuSans-35" d="M 691 4666 
L 3169 4666 
L 3169 4134 
L 1269 4134 
L 1269 2991 
Q 1406 3038 1543 3061 
Q 1681 3084 1819 3084 
Q 2600 3084 3056 2656 
Q 3513 2228 3513 1497 
Q 3513 744 3044 326 
Q 2575 -91 1722 -91 
Q 1428 -91 1123 -41 
Q 819 9 494 109 
L 494 744 
Q 775 591 1075 516 
Q 1375 441 1709 441 
Q 2250 441 2565 725 
Q 2881 1009 2881 1497 
Q 2881 1984 2565 2268 
Q 2250 2553 1709 2553 
Q 1456 2553 1204 2497 
Q 953 2441 691 2322 
L 691 4666 
z
" transform="scale(0.015625)"/>
       </defs>
       <use xlink:href="#DejaVuSans-35"/>
      </g>
     </g>
    </g>
    <g id="ytick_7">
     <g id="line2d_14">
      <g>
       <use xlink:href="#m0ce76244bf" x="90" y="110.16" style="stroke: #000000; stroke-width: 0.8"/>
      </g>
     </g>
     <g id="text_15">
      <!-- 6 -->
      <g transform="translate(76.6375 113.959219)scale(0.1 -0.1)">
       <use xlink:href="#DejaVuSans-36"/>
      </g>
     </g>
    </g>
    <g id="ytick_8">
     <g id="line2d_15">
      <g>
       <use xlink:href="#m0ce76244bf" x="90" y="66.96" style="stroke: #000000; stroke-width: 0.8"/>
      </g>
     </g>
     <g id="text_16">
      <!-- 7 -->
      <g transform="translate(76.6375 70.759219)scale(0.1 -0.1)">
       <defs>
        <path id="DejaVuSans-37" d="M 525 4666 
L 3525 4666 
L 3525 4397 
L 1831 0 
L 1172 0 
L 2766 4134 
L 525 4134 
L 525 4666 
z
" transform="scale(0.015625)"/>
       </defs>
       <use xlink:href="#DejaVuSans-37"/>
      </g>
     </g>
    </g>
    <g id="text_17">
     <!-- # empty datasets wrt ACORDAR -->
     <g transform="translate(70.557812 299.251406)rotate(-90)scale(0.1 -0.1)">
      <defs>
       <path id="DejaVuSans-23" d="M 3272 2816 
L 2363 2816 
L 2100 1772 
L 3016 1772 
L 3272 2816 
z
M 2803 4594 
L 2478 3297 
L 3391 3297 
L 3719 4594 
L 4219 4594 
L 3897 3297 
L 4872 3297 
L 4872 2816 
L 3775 2816 
L 3519 1772 
L 4513 1772 
L 4513 1294 
L 3397 1294 
L 3072 0 
L 2572 0 
L 2894 1294 
L 1978 1294 
L 1656 0 
L 1153 0 
L 1478 1294 
L 494 1294 
L 494 1772 
L 1594 1772 
L 1856 2816 
L 850 2816 
L 850 3297 
L 1978 3297 
L 2297 4594 
L 2803 4594 
z
" transform="scale(0.015625)"/>
       <path id="DejaVuSans-65" d="M 3597 1894 
L 3597 1613 
L 953 1613 
Q 991 1019 1311 708 
Q 1631 397 2203 397 
Q 2534 397 2845 478 
Q 3156 559 3463 722 
L 3463 178 
Q 3153 47 2828 -22 
Q 2503 -91 2169 -91 
Q 1331 -91 842 396 
Q 353 884 353 1716 
Q 353 2575 817 3079 
Q 1281 3584 2069 3584 
Q 2775 3584 3186 3129 
Q 3597 2675 3597 1894 
z
M 3022 2063 
Q 3016 2534 2758 2815 
Q 2500 3097 2075 3097 
Q 1594 3097 1305 2825 
Q 1016 2553 972 2059 
L 3022 2063 
z
" transform="scale(0.015625)"/>
       <path id="DejaVuSans-6d" d="M 3328 2828 
Q 3544 3216 3844 3400 
Q 4144 3584 4550 3584 
Q 5097 3584 5394 3201 
Q 5691 2819 5691 2113 
L 5691 0 
L 5113 0 
L 5113 2094 
Q 5113 2597 4934 2840 
Q 4756 3084 4391 3084 
Q 3944 3084 3684 2787 
Q 3425 2491 3425 1978 
L 3425 0 
L 2847 0 
L 2847 2094 
Q 2847 2600 2669 2842 
Q 2491 3084 2119 3084 
Q 1678 3084 1418 2786 
Q 1159 2488 1159 1978 
L 1159 0 
L 581 0 
L 581 3500 
L 1159 3500 
L 1159 2956 
Q 1356 3278 1631 3431 
Q 1906 3584 2284 3584 
Q 2666 3584 2933 3390 
Q 3200 3197 3328 2828 
z
" transform="scale(0.015625)"/>
       <path id="DejaVuSans-70" d="M 1159 525 
L 1159 -1331 
L 581 -1331 
L 581 3500 
L 1159 3500 
L 1159 2969 
Q 1341 3281 1617 3432 
Q 1894 3584 2278 3584 
Q 2916 3584 3314 3078 
Q 3713 2572 3713 1747 
Q 3713 922 3314 415 
Q 2916 -91 2278 -91 
Q 1894 -91 1617 61 
Q 1341 213 1159 525 
z
M 3116 1747 
Q 3116 2381 2855 2742 
Q 2594 3103 2138 3103 
Q 1681 3103 1420 2742 
Q 1159 2381 1159 1747 
Q 1159 1113 1420 752 
Q 1681 391 2138 391 
Q 2594 391 2855 752 
Q 3116 1113 3116 1747 
z
" transform="scale(0.015625)"/>
       <path id="DejaVuSans-74" d="M 1172 4494 
L 1172 3500 
L 2356 3500 
L 2356 3053 
L 1172 3053 
L 1172 1153 
Q 1172 725 1289 603 
Q 1406 481 1766 481 
L 2356 481 
L 2356 0 
L 1766 0 
Q 1100 0 847 248 
Q 594 497 594 1153 
L 594 3053 
L 172 3053 
L 172 3500 
L 594 3500 
L 594 4494 
L 1172 4494 
z
" transform="scale(0.015625)"/>
       <path id="DejaVuSans-79" d="M 2059 -325 
Q 1816 -950 1584 -1140 
Q 1353 -1331 966 -1331 
L 506 -1331 
L 506 -850 
L 844 -850 
Q 1081 -850 1212 -737 
Q 1344 -625 1503 -206 
L 1606 56 
L 191 3500 
L 800 3500 
L 1894 763 
L 2988 3500 
L 3597 3500 
L 2059 -325 
z
" transform="scale(0.015625)"/>
       <path id="DejaVuSans-61" d="M 2194 1759 
Q 1497 1759 1228 1600 
Q 959 1441 959 1056 
Q 959 750 1161 570 
Q 1363 391 1709 391 
Q 2188 391 2477 730 
Q 2766 1069 2766 1631 
L 2766 1759 
L 2194 1759 
z
M 3341 1997 
L 3341 0 
L 2766 0 
L 2766 531 
Q 2569 213 2275 61 
Q 1981 -91 1556 -91 
Q 1019 -91 701 211 
Q 384 513 384 1019 
Q 384 1609 779 1909 
Q 1175 2209 1959 2209 
L 2766 2209 
L 2766 2266 
Q 2766 2663 2505 2880 
Q 2244 3097 1772 3097 
Q 1472 3097 1187 3025 
Q 903 2953 641 2809 
L 641 3341 
Q 956 3463 1253 3523 
Q 1550 3584 1831 3584 
Q 2591 3584 2966 3190 
Q 3341 2797 3341 1997 
z
" transform="scale(0.015625)"/>
       <path id="DejaVuSans-73" d="M 2834 3397 
L 2834 2853 
Q 2591 2978 2328 3040 
Q 2066 3103 1784 3103 
Q 1356 3103 1142 2972 
Q 928 2841 928 2578 
Q 928 2378 1081 2264 
Q 1234 2150 1697 2047 
L 1894 2003 
Q 2506 1872 2764 1633 
Q 3022 1394 3022 966 
Q 3022 478 2636 193 
Q 2250 -91 1575 -91 
Q 1294 -91 989 -36 
Q 684 19 347 128 
L 347 722 
Q 666 556 975 473 
Q 1284 391 1588 391 
Q 1994 391 2212 530 
Q 2431 669 2431 922 
Q 2431 1156 2273 1281 
Q 2116 1406 1581 1522 
L 1381 1569 
Q 847 1681 609 1914 
Q 372 2147 372 2553 
Q 372 3047 722 3315 
Q 1072 3584 1716 3584 
Q 2034 3584 2315 3537 
Q 2597 3491 2834 3397 
z
" transform="scale(0.015625)"/>
       <path id="DejaVuSans-77" d="M 269 3500 
L 844 3500 
L 1563 769 
L 2278 3500 
L 2956 3500 
L 3675 769 
L 4391 3500 
L 4966 3500 
L 4050 0 
L 3372 0 
L 2619 2869 
L 1863 0 
L 1184 0 
L 269 3500 
z
" transform="scale(0.015625)"/>
       <path id="DejaVuSans-72" d="M 2631 2963 
Q 2534 3019 2420 3045 
Q 2306 3072 2169 3072 
Q 1681 3072 1420 2755 
Q 1159 2438 1159 1844 
L 1159 0 
L 581 0 
L 581 3500 
L 1159 3500 
L 1159 2956 
Q 1341 3275 1631 3429 
Q 1922 3584 2338 3584 
Q 2397 3584 2469 3576 
Q 2541 3569 2628 3553 
L 2631 2963 
z
" transform="scale(0.015625)"/>
       <path id="DejaVuSans-41" d="M 2188 4044 
L 1331 1722 
L 3047 1722 
L 2188 4044 
z
M 1831 4666 
L 2547 4666 
L 4325 0 
L 3669 0 
L 3244 1197 
L 1141 1197 
L 716 0 
L 50 0 
L 1831 4666 
z
" transform="scale(0.015625)"/>
       <path id="DejaVuSans-43" d="M 4122 4306 
L 4122 3641 
Q 3803 3938 3442 4084 
Q 3081 4231 2675 4231 
Q 1875 4231 1450 3742 
Q 1025 3253 1025 2328 
Q 1025 1406 1450 917 
Q 1875 428 2675 428 
Q 3081 428 3442 575 
Q 3803 722 4122 1019 
L 4122 359 
Q 3791 134 3420 21 
Q 3050 -91 2638 -91 
Q 1578 -91 968 557 
Q 359 1206 359 2328 
Q 359 3453 968 4101 
Q 1578 4750 2638 4750 
Q 3056 4750 3426 4639 
Q 3797 4528 4122 4306 
z
" transform="scale(0.015625)"/>
       <path id="DejaVuSans-4f" d="M 2522 4238 
Q 1834 4238 1429 3725 
Q 1025 3213 1025 2328 
Q 1025 1447 1429 934 
Q 1834 422 2522 422 
Q 3209 422 3611 934 
Q 4013 1447 4013 2328 
Q 4013 3213 3611 3725 
Q 3209 4238 2522 4238 
z
M 2522 4750 
Q 3503 4750 4090 4092 
Q 4678 3434 4678 2328 
Q 4678 1225 4090 567 
Q 3503 -91 2522 -91 
Q 1538 -91 948 565 
Q 359 1222 359 2328 
Q 359 3434 948 4092 
Q 1538 4750 2522 4750 
z
" transform="scale(0.015625)"/>
       <path id="DejaVuSans-52" d="M 2841 2188 
Q 3044 2119 3236 1894 
Q 3428 1669 3622 1275 
L 4263 0 
L 3584 0 
L 2988 1197 
Q 2756 1666 2539 1819 
Q 2322 1972 1947 1972 
L 1259 1972 
L 1259 0 
L 628 0 
L 628 4666 
L 2053 4666 
Q 2853 4666 3247 4331 
Q 3641 3997 3641 3322 
Q 3641 2881 3436 2590 
Q 3231 2300 2841 2188 
z
M 1259 4147 
L 1259 2491 
L 2053 2491 
Q 2509 2491 2742 2702 
Q 2975 2913 2975 3322 
Q 2975 3731 2742 3939 
Q 2509 4147 2053 4147 
L 1259 4147 
z
" transform="scale(0.015625)"/>
       <path id="DejaVuSans-44" d="M 1259 4147 
L 1259 519 
L 2022 519 
Q 2988 519 3436 956 
Q 3884 1394 3884 2338 
Q 3884 3275 3436 3711 
Q 2988 4147 2022 4147 
L 1259 4147 
z
M 628 4666 
L 1925 4666 
Q 3281 4666 3915 4102 
Q 4550 3538 4550 2338 
Q 4550 1131 3912 565 
Q 3275 0 1925 0 
L 628 0 
L 628 4666 
z
" transform="scale(0.015625)"/>
      </defs>
      <use xlink:href="#DejaVuSans-23"/>
      <use xlink:href="#DejaVuSans-20" x="83.789062"/>
      <use xlink:href="#DejaVuSans-65" x="115.576172"/>
      <use xlink:href="#DejaVuSans-6d" x="177.099609"/>
      <use xlink:href="#DejaVuSans-70" x="274.511719"/>
      <use xlink:href="#DejaVuSans-74" x="337.988281"/>
      <use xlink:href="#DejaVuSans-79" x="377.197266"/>
      <use xlink:href="#DejaVuSans-20" x="436.376953"/>
      <use xlink:href="#DejaVuSans-64" x="468.164062"/>
      <use xlink:href="#DejaVuSans-61" x="531.640625"/>
      <use xlink:href="#DejaVuSans-74" x="592.919922"/>
      <use xlink:href="#DejaVuSans-61" x="632.128906"/>
      <use xlink:href="#DejaVuSans-73" x="693.408203"/>
      <use xlink:href="#DejaVuSans-65" x="745.507812"/>
      <use xlink:href="#DejaVuSans-74" x="807.03125"/>
      <use xlink:href="#DejaVuSans-73" x="846.240234"/>
      <use xlink:href="#DejaVuSans-20" x="898.339844"/>
      <use xlink:href="#DejaVuSans-77" x="930.126953"/>
      <use xlink:href="#DejaVuSans-72" x="1011.914062"/>
      <use xlink:href="#DejaVuSans-74" x="1053.027344"/>
      <use xlink:href="#DejaVuSans-20" x="1092.236328"/>
      <use xlink:href="#DejaVuSans-41" x="1124.023438"/>
      <use xlink:href="#DejaVuSans-43" x="1190.681641"/>
      <use xlink:href="#DejaVuSans-4f" x="1260.505859"/>
      <use xlink:href="#DejaVuSans-52" x="1339.216797"/>
      <use xlink:href="#DejaVuSans-44" x="1408.699219"/>
      <use xlink:href="#DejaVuSans-41" x="1483.951172"/>
      <use xlink:href="#DejaVuSans-52" x="1552.359375"/>
     </g>
    </g>
   </g>
   <g id="line2d_16">
    <path d="M 115.363636 283.909787 
L 120.487603 283.48735 
L 125.61157 283.064913 
L 130.735537 282.642476 
L 135.859504 282.220039 
L 140.983471 281.797602 
L 146.107438 281.375164 
L 151.231405 280.952727 
L 156.355372 280.53029 
L 161.479339 280.107853 
L 166.603306 279.685416 
L 171.727273 279.262979 
L 176.85124 278.840542 
L 181.975207 278.418104 
L 187.099174 277.995667 
L 192.22314 277.57323 
L 197.347107 277.150793 
L 202.471074 276.728356 
L 207.595041 276.305919 
L 212.719008 275.883482 
L 217.842975 275.461044 
L 222.966942 275.038607 
L 228.090909 274.61617 
L 233.214876 274.193733 
L 238.338843 273.771296 
L 243.46281 273.348859 
L 248.586777 272.926422 
L 253.710744 272.503985 
L 258.834711 272.081547 
L 263.958678 271.65911 
L 269.082645 271.236673 
L 274.206612 270.814236 
L 279.330579 270.391799 
L 284.454545 269.969362 
L 289.578512 269.546925 
L 294.702479 269.124487 
L 299.826446 268.70205 
L 304.950413 268.279613 
L 310.07438 267.857176 
L 315.198347 267.434739 
L 320.322314 267.012302 
L 325.446281 266.589865 
L 330.570248 266.167427 
L 335.694215 265.74499 
L 340.818182 265.322553 
L 345.942149 264.900116 
L 351.066116 264.477679 
L 356.190083 264.055242 
L 361.31405 263.632805 
L 366.438017 263.210368 
L 371.561983 262.78793 
L 376.68595 262.365493 
L 381.809917 261.943056 
L 386.933884 261.520619 
L 392.057851 261.098182 
L 397.181818 260.675745 
L 402.305785 260.253308 
L 407.429752 259.83087 
L 412.553719 259.408433 
L 417.677686 258.985996 
L 422.801653 258.563559 
L 427.92562 258.141122 
L 433.049587 257.718685 
L 438.173554 257.296248 
L 443.297521 256.87381 
L 448.421488 256.451373 
L 453.545455 256.028936 
L 458.669421 255.606499 
L 463.793388 255.184062 
L 468.917355 254.761625 
L 474.041322 254.339188 
L 479.165289 253.91675 
L 484.289256 253.494313 
L 489.413223 253.071876 
L 494.53719 252.649439 
L 499.661157 252.227002 
L 504.785124 251.804565 
L 509.909091 251.382128 
L 515.033058 250.959691 
L 520.157025 250.537253 
L 525.280992 250.114816 
L 530.404959 249.692379 
L 535.528926 249.269942 
L 540.652893 248.847505 
L 545.77686 248.425068 
L 550.900826 248.002631 
L 556.024793 247.580193 
L 561.14876 247.157756 
L 566.272727 246.735319 
L 571.396694 246.312882 
L 576.520661 245.890445 
L 581.644628 245.468008 
L 586.768595 245.045571 
L 591.892562 244.623133 
L 597.016529 244.200696 
L 602.140496 243.778259 
L 607.264463 243.355822 
L 612.38843 242.933385 
L 617.512397 242.510948 
L 622.636364 242.088511 
" clip-path="url(#p726333c8b3)" style="fill: none; stroke-dasharray: 5.55,2.4; stroke-dashoffset: 0; stroke: #ff0000; stroke-width: 1.5"/>
   </g>
   <g id="patch_3">
    <path d="M 90 384.48 
L 90 51.84 
" style="fill: none; stroke: #000000; stroke-width: 0.8; stroke-linejoin: miter; stroke-linecap: square"/>
   </g>
   <g id="patch_4">
    <path d="M 648 384.48 
L 648 51.84 
" style="fill: none; stroke: #000000; stroke-width: 0.8; stroke-linejoin: miter; stroke-linecap: square"/>
   </g>
   <g id="patch_5">
    <path d="M 90 384.48 
L 648 384.48 
" style="fill: none; stroke: #000000; stroke-width: 0.8; stroke-linejoin: miter; stroke-linecap: square"/>
   </g>
   <g id="patch_6">
    <path d="M 90 51.84 
L 648 51.84 
" style="fill: none; stroke: #000000; stroke-width: 0.8; stroke-linejoin: miter; stroke-linecap: square"/>
   </g>
   <g id="text_18">
    <!-- Correlation between diff @P10 and # empty datasets wrt ACORDAR -->
    <g transform="translate(164.885625 45.84)scale(0.12 -0.12)">
     <defs>
      <path id="DejaVuSans-6f" d="M 1959 3097 
Q 1497 3097 1228 2736 
Q 959 2375 959 1747 
Q 959 1119 1226 758 
Q 1494 397 1959 397 
Q 2419 397 2687 759 
Q 2956 1122 2956 1747 
Q 2956 2369 2687 2733 
Q 2419 3097 1959 3097 
z
M 1959 3584 
Q 2709 3584 3137 3096 
Q 3566 2609 3566 1747 
Q 3566 888 3137 398 
Q 2709 -91 1959 -91 
Q 1206 -91 779 398 
Q 353 888 353 1747 
Q 353 2609 779 3096 
Q 1206 3584 1959 3584 
z
" transform="scale(0.015625)"/>
      <path id="DejaVuSans-6c" d="M 603 4863 
L 1178 4863 
L 1178 0 
L 603 0 
L 603 4863 
z
" transform="scale(0.015625)"/>
      <path id="DejaVuSans-6e" d="M 3513 2113 
L 3513 0 
L 2938 0 
L 2938 2094 
Q 2938 2591 2744 2837 
Q 2550 3084 2163 3084 
Q 1697 3084 1428 2787 
Q 1159 2491 1159 1978 
L 1159 0 
L 581 0 
L 581 3500 
L 1159 3500 
L 1159 2956 
Q 1366 3272 1645 3428 
Q 1925 3584 2291 3584 
Q 2894 3584 3203 3211 
Q 3513 2838 3513 2113 
z
" transform="scale(0.015625)"/>
      <path id="DejaVuSans-62" d="M 3116 1747 
Q 3116 2381 2855 2742 
Q 2594 3103 2138 3103 
Q 1681 3103 1420 2742 
Q 1159 2381 1159 1747 
Q 1159 1113 1420 752 
Q 1681 391 2138 391 
Q 2594 391 2855 752 
Q 3116 1113 3116 1747 
z
M 1159 2969 
Q 1341 3281 1617 3432 
Q 1894 3584 2278 3584 
Q 2916 3584 3314 3078 
Q 3713 2572 3713 1747 
Q 3713 922 3314 415 
Q 2916 -91 2278 -91 
Q 1894 -91 1617 61 
Q 1341 213 1159 525 
L 1159 0 
L 581 0 
L 581 4863 
L 1159 4863 
L 1159 2969 
z
" transform="scale(0.015625)"/>
     </defs>
     <use xlink:href="#DejaVuSans-43"/>
     <use xlink:href="#DejaVuSans-6f" x="69.824219"/>
     <use xlink:href="#DejaVuSans-72" x="131.005859"/>
     <use xlink:href="#DejaVuSans-72" x="170.369141"/>
     <use xlink:href="#DejaVuSans-65" x="209.232422"/>
     <use xlink:href="#DejaVuSans-6c" x="270.755859"/>
     <use xlink:href="#DejaVuSans-61" x="298.539062"/>
     <use xlink:href="#DejaVuSans-74" x="359.818359"/>
     <use xlink:href="#DejaVuSans-69" x="399.027344"/>
     <use xlink:href="#DejaVuSans-6f" x="426.810547"/>
     <use xlink:href="#DejaVuSans-6e" x="487.992188"/>
     <use xlink:href="#DejaVuSans-20" x="551.371094"/>
     <use xlink:href="#DejaVuSans-62" x="583.158203"/>
     <use xlink:href="#DejaVuSans-65" x="646.634766"/>
     <use xlink:href="#DejaVuSans-74" x="708.158203"/>
     <use xlink:href="#DejaVuSans-77" x="747.367188"/>
     <use xlink:href="#DejaVuSans-65" x="829.154297"/>
     <use xlink:href="#DejaVuSans-65" x="890.677734"/>
     <use xlink:href="#DejaVuSans-6e" x="952.201172"/>
     <use xlink:href="#DejaVuSans-20" x="1015.580078"/>
     <use xlink:href="#DejaVuSans-64" x="1047.367188"/>
     <use xlink:href="#DejaVuSans-69" x="1110.84375"/>
     <use xlink:href="#DejaVuSans-66" x="1138.626953"/>
     <use xlink:href="#DejaVuSans-66" x="1173.832031"/>
     <use xlink:href="#DejaVuSans-20" x="1209.037109"/>
     <use xlink:href="#DejaVuSans-40" x="1240.824219"/>
     <use xlink:href="#DejaVuSans-50" x="1340.824219"/>
     <use xlink:href="#DejaVuSans-31" x="1401.126953"/>
     <use xlink:href="#DejaVuSans-30" x="1464.75"/>
     <use xlink:href="#DejaVuSans-20" x="1528.373047"/>
     <use xlink:href="#DejaVuSans-61" x="1560.160156"/>
     <use xlink:href="#DejaVuSans-6e" x="1621.439453"/>
     <use xlink:href="#DejaVuSans-64" x="1684.818359"/>
     <use xlink:href="#DejaVuSans-20" x="1748.294922"/>
     <use xlink:href="#DejaVuSans-23" x="1780.082031"/>
     <use xlink:href="#DejaVuSans-20" x="1863.871094"/>
     <use xlink:href="#DejaVuSans-65" x="1895.658203"/>
     <use xlink:href="#DejaVuSans-6d" x="1957.181641"/>
     <use xlink:href="#DejaVuSans-70" x="2054.59375"/>
     <use xlink:href="#DejaVuSans-74" x="2118.070312"/>
     <use xlink:href="#DejaVuSans-79" x="2157.279297"/>
     <use xlink:href="#DejaVuSans-20" x="2216.458984"/>
     <use xlink:href="#DejaVuSans-64" x="2248.246094"/>
     <use xlink:href="#DejaVuSans-61" x="2311.722656"/>
     <use xlink:href="#DejaVuSans-74" x="2373.001953"/>
     <use xlink:href="#DejaVuSans-61" x="2412.210938"/>
     <use xlink:href="#DejaVuSans-73" x="2473.490234"/>
     <use xlink:href="#DejaVuSans-65" x="2525.589844"/>
     <use xlink:href="#DejaVuSans-74" x="2587.113281"/>
     <use xlink:href="#DejaVuSans-73" x="2626.322266"/>
     <use xlink:href="#DejaVuSans-20" x="2678.421875"/>
     <use xlink:href="#DejaVuSans-77" x="2710.208984"/>
     <use xlink:href="#DejaVuSans-72" x="2791.996094"/>
     <use xlink:href="#DejaVuSans-74" x="2833.109375"/>
     <use xlink:href="#DejaVuSans-20" x="2872.318359"/>
     <use xlink:href="#DejaVuSans-41" x="2904.105469"/>
     <use xlink:href="#DejaVuSans-43" x="2970.763672"/>
     <use xlink:href="#DejaVuSans-4f" x="3040.587891"/>
     <use xlink:href="#DejaVuSans-52" x="3119.298828"/>
     <use xlink:href="#DejaVuSans-44" x="3188.78125"/>
     <use xlink:href="#DejaVuSans-41" x="3264.033203"/>
     <use xlink:href="#DejaVuSans-52" x="3332.441406"/>
    </g>
   </g>
  </g>
 </g>
 <defs>
  <clipPath id="p726333c8b3">
   <rect x="90" y="51.84" width="558" height="332.64"/>
  </clipPath>
 </defs>
</svg>
